<?xml version="1.0" encoding="utf-8"?>
<!-- Generator: Adobe Illustrator 18.0.0, SVG Export Plug-In . SVG Version: 6.00 Build 0)  -->
<!DOCTYPE svg PUBLIC "-//W3C//DTD SVG 1.1//EN" "http://www.w3.org/Graphics/SVG/1.1/DTD/svg11.dtd">
<svg version="1.1" id="Layer_1" xmlns="http://www.w3.org/2000/svg" xmlns:xlink="http://www.w3.org/1999/xlink" x="0px" y="0px"
	 viewBox="0 0 1734.8 1734.8" enable-background="new 0 0 1734.8 1734.8" xml:space="preserve">
<path fill="#020304" d="M465.8,958.3c-3-46.4-34.4-84.6-77.1-98.8c-11.2-3.7-22.5-6-35.2-6c-12,0-24,2.2-35.2,6
	c-42.7,14.2-73.4,52.4-77.1,98.8c0,3-0.7,5.2-0.7,8.2c0,62.1,50.2,112.3,112.3,112.3s112.3-50.2,112.3-112.3
	C466.6,963.5,466.6,960.5,465.8,958.3L465.8,958.3z M354.3,1030.1c-35.2,0-64.4-28.5-64.4-64.4c0-3,0-5.2,0.7-8.2
	c3.7-31.4,30.7-56.2,63.6-56.2s59.9,24.7,63.6,56.2l0,0c0,3,0.7,5.2,0.7,8.2C418.7,1001.7,389.5,1030.1,354.3,1030.1z"/>
<path fill="#020304" d="M1389.7,859.4c-11.2-3.7-22.5-6-35.2-6s-24,2.2-35.2,6c-42.7,14.2-73.4,52.4-77.1,98.8c0,3-0.7,5.2-0.7,8.2
	c0,62.1,50.2,112.3,112.3,112.3s112.3-50.2,112.3-112.3c0-3,0-5.2-0.7-8.2C1463.8,911.8,1432.4,873.7,1389.7,859.4z M1355.3,1030.1
	c-35.2,0-64.4-28.5-64.4-64.4c0-3,0-5.2,0.7-8.2c3.7-31.4,30.7-56.2,63.6-56.2c32.9,0,59.9,24.7,63.6,56.2c0,3,0.7,5.2,0.7,8.2
	C1418.9,1001.7,1390.5,1030.1,1355.3,1030.1z"/>
<path fill="#020304" d="M1044.6,859.4c-11.2-3.7-22.5-6-35.2-6c-12.7,0-24,2.2-35.2,6c-42.7,14.2-73.4,52.4-77.1,98.8
	c0,3-0.7,5.2-0.7,8.2c0,62.1,50.2,112.3,112.3,112.3c62.1,0,112.3-50.2,112.3-112.3c0-3,0-5.2-0.7-8.2
	C1118.7,911.8,1087.3,873.7,1044.6,859.4z M1010.2,1030.1c-35.2,0-64.4-28.5-64.4-64.4c0-3,0-5.2,0.7-8.2
	c3.7-31.4,30.7-56.2,63.6-56.2s59.9,24.7,63.6,56.2c0,3,0.7,5.2,0.7,8.2C1073.8,1001.7,1045.4,1030.1,1010.2,1030.1z"/>
<path fill="#020304" d="M1659.2,878.9c-1.5-12-13.5-19.5-26.2-19.5h-65.9v-575c0-12-9.7-21.7-21.7-21.7H644
	c-12,0-21.7,9.7-21.7,21.7v575h-27.7V519.5c0-12-9.7-21.7-21.7-21.7H325.1c-13.5,0-25.5,7.5-31.4,18.7L155.9,769.6
	c-6.7,12-10.5,26.2-10.5,40.4v49.4h-44.2c-12.7,0-25.5,7.5-29.2,19.5c-6,19.5-6,38.9,0,58.4c3.7,12.7,16.5,20.2,29.2,20.2h65.9h24
	h23.2c2.2-39.7,21-74.1,48.7-98.8c24.7-21,56.2-33.7,90.6-33.7s66.6,12.7,90.6,33.7c28.4,24,46.4,59.1,48.7,98.8H513V974
	c0,13.5,5.2,27,15,36.7l16.5,17.2c5.2,5.2,15,1.5,15-6v-64.4h314.8c1.8-74.2,62.3-133.8,136.9-133.8c74.6,0,135.2,59.6,136.9,133.8
	h65.7c2.2-39.7,21-74.1,48.7-98.8c24.7-21,56.2-33.7,90.6-33.7s66.6,12.7,90.6,33.7c28.4,24,46.4,59.1,48.7,98.8h25.5v20.2
	c0,13.5,6,27,15.7,35.9l15.7,15c6,5.2,15.7,1.5,15.7-6.7v-64.4h65.9c12.7,0,24.7-7.5,28.5-20.2
	C1664.5,917.8,1664.5,899.1,1659.2,878.9z M486,709H384.2c-3,0-6,2.2-7.5,4.5l-4.5,9c-6,12-18,19.5-30.7,19.5h-43.4
	c-9.7,0-16.5-10.5-12-19.5l34.4-71.1l24.7-45.7c6-11.2,18.7-18.7,31.4-18.7h108.6c12,0,21.7,9.7,21.7,21.7v78.6h0.7
	C507.8,699.2,498,709,486,709z"/>
<g>
	<path d="M509.6,1375.6h99.8v41.4H455.7v-231.6h53.9V1375.6z"/>
	<path d="M811.1,1385c-7.8,9.3-19.3,17.6-34.2,24.7c-15,7.1-33.7,10.7-56.3,10.7c-28.6,0-51.9-8.8-69.8-26.4
		c-17.9-17.6-26.8-40.5-26.8-68.6v-48.4c0-27.9,8.7-50.7,26.2-68.4c17.4-17.7,39.9-26.6,67.4-26.6c29.8,0,52.1,6.9,67,20.7
		c14.8,13.8,23.3,32.6,25.3,56.5l-0.3,1h-50.4c-1.8-12.2-5.8-21.4-11.9-27.5c-6.1-6.1-15.4-9.2-27.9-9.2c-12.5,0-22.6,5-30.2,14.9
		c-7.6,9.9-11.5,22.7-11.5,38.4v48.7c0,16.1,3.8,29.1,11.3,38.9c7.5,9.8,18.1,14.7,31.7,14.7c9.9,0,17.6-0.8,23.2-2.4
		c5.6-1.6,10.1-3.7,13.4-6.4v-36.6h-36.4v-35.6h90.4V1385z"/>
	<path d="M927.1,1354.1l1.6,8.4h1l1.6-7.8l46-169.4h56.3l-75.1,231.6h-58.1l-74.8-231.6h56.2L927.1,1354.1z"/>
	<path d="M1242.7,1416.9h-53.6v-177.7h-51.7v-37.9l105.3-16.2V1416.9z"/>
</g>
</svg>
