<?xml version="1.0" encoding="utf-8"?>
<!-- Generator: Adobe Illustrator 18.0.0, SVG Export Plug-In . SVG Version: 6.00 Build 0)  -->
<!DOCTYPE svg PUBLIC "-//W3C//DTD SVG 1.1//EN" "http://www.w3.org/Graphics/SVG/1.1/DTD/svg11.dtd">
<svg version="1.1" id="Layer_1" xmlns="http://www.w3.org/2000/svg" xmlns:xlink="http://www.w3.org/1999/xlink" x="0px" y="0px"
	 viewBox="0 0 1734.8 1734.8" enable-background="new 0 0 1734.8 1734.8" xml:space="preserve">
<g>
	<path fill="#020304" d="M1649.6,882h-67.3V294.6c0-12.2-9.9-22.2-22.2-22.2H639.2c-12.2,0-22.2,9.9-22.2,22.2V882h-28.3V534.8
		c0-12.2-9.9-22.2-22.2-22.2H313.4c-13.8,0-26,7.6-32.1,19.1L140.6,790.3c-6.9,12.2-10.7,26.8-10.7,41.3V882H84.7
		c-13,0-26,7.6-29.8,19.9c-6.1,19.9-6.1,39.8,0,59.7c3.8,13,16.8,20.7,29.8,20.7H152l0,0h24.5h23.7c2.3-40.5,21.4-75.7,49.7-101
		c25.2-21.4,57.4-34.4,92.5-34.4s68.1,13,92.5,34.4c29.1,24.5,47.4,60.4,49.7,101l0,0h20.7v16.8c0,13.8,5.4,27.5,15.3,37.5
		l16.8,17.6c5.4,5.4,15.3,1.5,15.3-6.1v-65.8h668.5c2.3-40.5,21.4-75.7,49.7-101c25.2-21.4,57.4-34.4,92.5-34.4
		c35.2,0,68.1,13,92.5,34.4c29.1,24.5,47.4,60.4,49.7,101h26v20.7c0,13.8,6.1,27.5,16.1,36.7l16.1,15.3c6.1,5.4,16.1,1.5,16.1-6.9
		v-65.8h67.3c13,0,25.2-7.6,29.1-20.7c5.4-19.9,5.4-39,0-59.7C1674.8,889.7,1662.6,882,1649.6,882z M500,706.1
		c0,12.2-9.9,22.2-22.2,22.2h-104c-3.1,0-6.1,2.3-7.6,4.6l-4.6,9.2c-6.1,12.2-18.4,19.9-31.4,19.9h-44.4c-9.9,0-16.8-10.7-12.2-19.9
		l35.2-72.7l25.2-46.7c6.1-11.5,19.1-19.1,32.1-19.1h110.9c12.2,0,22.2,9.9,22.2,22.2v80.3H500z"/>
	<path fill="#020304" d="M457.2,983c-3.1-47.4-35.2-86.4-78.8-101c-11.5-3.8-22.9-6.1-35.9-6.1c-12.2,0-24.5,2.3-35.9,6.1
		c-43.6,14.5-75,53.5-78.8,101c0,3.1-0.8,5.4-0.8,8.4c0,63.5,51.2,114.7,114.7,114.7s114.7-51.2,114.7-114.7
		C458,988.3,458,985.3,457.2,983L457.2,983z M343.2,1056.4c-35.9,0-65.8-29.1-65.8-65.8c0-3.1,0-5.4,0.8-8.4
		c3.8-32.1,31.4-57.4,65-57.4s61.2,25.2,65,57.4l0,0c0,3.1,0.8,5.4,0.8,8.4C409,1027.4,379.2,1056.4,343.2,1056.4z"/>
	<path fill="#020304" d="M1401,882c-11.5-3.8-22.9-6.1-35.9-6.1c-13,0-24.5,2.3-35.9,6.1c-43.6,14.5-75,53.5-78.8,101
		c0,3.1-0.8,5.4-0.8,8.4c0,63.5,51.2,114.7,114.7,114.7c63.5,0,114.7-51.2,114.7-114.7c0-3.1,0-5.4-0.8-8.4
		C1476.7,935.6,1444.6,896.6,1401,882z M1365.8,1056.4c-35.9,0-65.8-29.1-65.8-65.8c0-3.1,0-5.4,0.8-8.4c3.8-32.1,31.4-57.4,65-57.4
		s61.2,25.2,65,57.4c0,3.1,0.8,5.4,0.8,8.4C1430.9,1027.4,1401.8,1056.4,1365.8,1056.4z"/>
</g>
<g>
	<path d="M742.8,1197c-23.6,27-39.9,53.3-48.9,79c-9,25.7-15.3,56.5-19,92.5l-2.3,22.9h-54.9l2.1-22.9c3.3-33.8,10.7-65.2,22.3-94.1
		c11.6-28.9,27.6-54.7,48.1-77.4h-118v-42.3h170.7V1197z"/>
	<path d="M780,1391.4h-54.8v-46.2H780V1391.4z"/>
	<path d="M816,1287.4l13.7-132.6h138.8v42.3h-94.1l-6,49.6c4.1-3.1,9.3-5.7,15.4-7.6c6.2-2,12.9-3,20.3-3.3
		c23.2-0.4,41,6.3,53.5,20.2c12.5,13.9,18.7,33.7,18.7,59.2c0,22.2-7.1,41-21.3,56.5c-14.2,15.4-34.5,23.2-60.9,23.2
		c-22.5,0-42.1-6.2-58.7-18.7c-16.6-12.5-24.6-28.9-24.1-49.4l0.3-1l53.6-3.3c0,9.4,2.6,16.8,7.9,22.1c5.3,5.3,12.2,8,20.9,8
		c10,0,17-3.5,21.2-10.5c4.2-7,6.3-15.8,6.3-26.6c0-13-2.3-23.2-7-30.7c-4.7-7.5-12-11.2-22.1-11.2c-7.4,0-13.3,1.6-17.8,4.7
		c-4.5,3.1-7.6,7.1-9.3,11.9L816,1287.4z"/>
	<path d="M1173.5,1197h-62.4v194.4H1056V1197h-61.9v-42.3h179.4V1197z"/>
</g>
</svg>
