<?xml version="1.0" encoding="utf-8"?>
<!-- Generator: Adobe Illustrator 18.0.0, SVG Export Plug-In . SVG Version: 6.00 Build 0)  -->
<!DOCTYPE svg PUBLIC "-//W3C//DTD SVG 1.1//EN" "http://www.w3.org/Graphics/SVG/1.1/DTD/svg11.dtd">
<svg version="1.1" id="Layer_1" xmlns="http://www.w3.org/2000/svg" xmlns:xlink="http://www.w3.org/1999/xlink" x="0px" y="0px"
	 viewBox="0 0 1734.8 1734.8" enable-background="new 0 0 1734.8 1734.8" xml:space="preserve">
<path fill="#020304" d="M466.5,961.3c-3-46.3-34.4-84.5-77-98.7c-11.2-3.7-22.4-6-35.1-6c-12,0-23.9,2.2-35.1,6
	c-42.6,14.2-73.3,52.3-77,98.7c0,3-0.7,5.2-0.7,8.2c0,62,50.1,112.1,112.1,112.1s112.1-50.1,112.1-112.1
	C467.2,966.6,467.2,963.6,466.5,961.3L466.5,961.3z M355.1,1033.1c-35.1,0-64.3-28.4-64.3-64.3c0-3,0-5.2,0.7-8.2
	c3.7-31.4,30.6-56.1,63.5-56.1s59.8,24.7,63.5,56.1l0,0c0,3,0.7,5.2,0.7,8.2C419.4,1004.7,390.2,1033.1,355.1,1033.1z"/>
<path fill="#020304" d="M1388.9,862.7c-11.2-3.7-22.4-6-35.1-6c-12.7,0-23.9,2.2-35.1,6c-42.6,14.2-73.3,52.3-77,98.7
	c0,3-0.7,5.2-0.7,8.2c0,62,50.1,112.1,112.1,112.1c62,0,112.1-50.1,112.1-112.1c0-3,0-5.2-0.7-8.2
	C1462.9,915,1431.5,876.9,1388.9,862.7z M1354.5,1033.1c-35.1,0-64.3-28.4-64.3-64.3c0-3,0-5.2,0.7-8.2
	c3.7-31.4,30.6-56.1,63.5-56.1s59.8,24.7,63.5,56.1c0,3,0.7,5.2,0.7,8.2C1418,1004.7,1389.6,1033.1,1354.5,1033.1z"/>
<path fill="#020304" d="M1044.3,862.7c-11.2-3.7-22.4-6-35.1-6s-23.9,2.2-35.1,6c-42.6,14.2-73.3,52.3-77,98.7c0,3-0.7,5.2-0.7,8.2
	c0,62,50.1,112.1,112.1,112.1s112.1-50.1,112.1-112.1c0-3,0-5.2-0.7-8.2C1118.3,915,1086.9,876.9,1044.3,862.7z M1010,1033.1
	c-35.1,0-64.3-28.4-64.3-64.3c0-3,0-5.2,0.7-8.2c3.7-31.4,30.6-56.1,63.5-56.1c32.9,0,59.8,24.7,63.5,56.1c0,3,0.7,5.2,0.7,8.2
	C1073.5,1004.7,1045.1,1033.1,1010,1033.1z"/>
<path fill="#020304" d="M1658,882.1c-1.5-12-13.5-19.4-26.2-19.4H1566V288.6c0-12-9.7-21.7-21.7-21.7h-900c-12,0-21.7,9.7-21.7,21.7
	v574.1H595V523.3c0-12-9.7-21.7-21.7-21.7H325.9c-13.5,0-25.4,7.5-31.4,18.7L157,773c-6.7,12-10.5,26.2-10.5,40.4v49.3h-44.1
	c-12.7,0-25.4,7.5-29.2,19.4c-6,19.4-6,38.9,0,58.3c3.7,12.7,16.4,20.2,29.2,20.2h65.8h23.9h23.2c2.2-39.6,20.9-74,48.6-98.7
	c24.7-20.9,56.1-33.6,90.4-33.6s66.5,12.7,90.4,33.6c28.4,23.9,46.3,59.1,48.6,98.7h20.2V977c0,13.5,5.2,26.9,14.9,36.6l16.4,17.2
	c5.2,5.2,15,1.5,15-6v-64.3h314.3c1.8-74.1,62.2-133.6,136.7-133.6c74.5,0,135,59.5,136.7,133.6h65.6c2.2-39.6,20.9-74,48.6-98.7
	c24.7-20.9,56.1-33.6,90.4-33.6c34.4,0,66.5,12.7,90.4,33.6c28.4,23.9,46.3,59.1,48.6,98.7h25.4v20.2c0,13.5,6,26.9,15.7,35.9
	l15.7,15c6,5.2,15.7,1.5,15.7-6.7v-64.3h65.8c12.7,0,24.7-7.5,28.4-20.2C1663.2,921,1663.2,902.3,1658,882.1z M486.6,712.4H385
	c-3,0-6,2.2-7.5,4.5l-4.5,9c-6,12-17.9,19.4-30.6,19.4H299c-9.7,0-16.4-10.5-12-19.4l34.4-71l24.7-45.6c6-11.2,18.7-18.7,31.4-18.7
	h108.4c12,0,21.7,9.7,21.7,21.7v78.5h0.7C508.3,702.7,498.6,712.4,486.6,712.4z"/>
<g>
	<path d="M510.2,1355.2h99.6v41.3H456.3v-231.3h53.8V1355.2z"/>
	<path d="M811.2,1364.5c-7.8,9.3-19.2,17.5-34.2,24.6c-14.9,7.1-33.7,10.6-56.2,10.6c-28.6,0-51.8-8.8-69.7-26.4
		c-17.8-17.6-26.8-40.4-26.8-68.5v-48.3c0-27.8,8.7-50.6,26.1-68.3c17.4-17.7,39.8-26.5,67.3-26.5c29.8,0,52,6.9,66.9,20.6
		c14.8,13.8,23.2,32.6,25.3,56.4l-0.3,1h-50.4c-1.8-12.2-5.7-21.3-11.8-27.5c-6.1-6.1-15.4-9.2-27.9-9.2c-12.5,0-22.6,5-30.2,14.8
		c-7.6,9.9-11.4,22.7-11.4,38.4v48.6c0,16.1,3.8,29,11.3,38.8c7.5,9.8,18.1,14.7,31.6,14.7c9.8,0,17.6-0.8,23.2-2.4
		c5.6-1.6,10.1-3.7,13.3-6.4v-36.5H721v-35.6h90.2V1364.5z"/>
	<path d="M927,1333.7l1.6,8.4h1l1.6-7.8l45.9-169.2h56.2l-75,231.3h-58l-74.7-231.3h56.1L927,1333.7z"/>
	<path d="M1290.1,1396.5h-161.9v-34.9l74.3-78.1c9.4-10.8,16.4-20.4,20.8-28.9c4.4-8.5,6.7-15.8,6.7-22.1c0-8.9-2.3-16-6.7-21.3
		c-4.5-5.3-11.3-7.9-20.3-7.9c-8.1,0-14.4,3.4-19,10.2c-4.6,6.8-6.9,15.5-6.9,26.1h-52.4l-0.3-1c-0.5-21.4,6.5-39.5,21-54.4
		c14.5-14.9,33.7-22.3,57.7-22.3c25.4,0,45.2,6.2,59.5,18.7c14.2,12.5,21.4,29.6,21.4,51.3c0,14.6-3.8,27.5-11.4,38.8
		c-7.6,11.2-21.5,27.9-41.9,50l-31.3,33.5l0.5,1h90.2V1396.5z"/>
</g>
</svg>
