<?xml version="1.0" encoding="utf-8"?>
<!-- Generator: Adobe Illustrator 18.0.0, SVG Export Plug-In . SVG Version: 6.00 Build 0)  -->
<!DOCTYPE svg PUBLIC "-//W3C//DTD SVG 1.1//EN" "http://www.w3.org/Graphics/SVG/1.1/DTD/svg11.dtd">
<svg version="1.1" id="Layer_1" xmlns="http://www.w3.org/2000/svg" xmlns:xlink="http://www.w3.org/1999/xlink" x="0px" y="0px"
	 viewBox="0 0 1734.8 1734.8" enable-background="new 0 0 1734.8 1734.8" xml:space="preserve">
<g>
	<path fill="#020304" d="M314.1,858c-61.1,0-111.7,49.8-111.7,111.7s49.8,111.7,111.7,111.7c61.1,0,111.7-49.8,111.7-111.7
		C425.8,907.9,376,858,314.1,858z M314.1,1040.7c-39.2,0-70.9-31.7-70.9-70.9c0-39.2,31.7-70.9,70.9-70.9s70.9,31.7,70.9,70.9
		C385.8,1009,353.3,1040.7,314.1,1040.7z"/>
	<path fill="#020304" d="M1405.3,857.3c-61.9,0-111.7,49.8-111.7,111.7s49.8,111.7,111.7,111.7c61.1,0,111.7-49.8,111.7-111.7
		C1516.2,907.1,1466.4,857.3,1405.3,857.3z M1405.3,1039.9c-39.2,0-70.9-31.7-70.9-70.9c0-39.2,31.7-70.9,70.9-70.9
		c39.2,0,70.9,31.7,70.9,70.9C1476.2,1008.2,1444.5,1039.9,1405.3,1039.9z"/>
	<path fill="#020304" d="M1678.4,858.8c0-9.8,0-26.4,0-36.2V806c0-9.8,0-26.4,0-36.2V665.6c0-9.8-0.8-26.4-1.5-36.2l-6-71.7
		c-0.8-9.8-3-26.4-4.5-36.2l-10.6-69.4c-1.5-9.8-4.5-26.4-6.8-36.2l-5.3-24.9c-2.3-9.8-6.8-25.7-10.6-34.7l-0.8-0.8
		c-3.8-9.1-15.1-16.6-25.7-16.6H690.7c-9.8,0-24.1,1.5-30.9,3.8c-6.8,2.3-18.1,6-24.9,9.1c-6.8,3-18.9,10.6-26.4,15.8L585,384.2
		c-8.3,6-21.1,15.8-29.4,21.9l-80.7,61.9c-8.3,6-20.4,16.6-28.7,23.4l-78.5,67.2c-7.5,6.8-20.4,17.4-27.9,24.1l-49,42.3
		c-7.5,6.8-21.1,15.8-30.2,20.4L216,668.6c-9.1,4.5-23.4,12.8-32.4,17.4l-30.2,16.6c-9.1,4.5-21.9,14.3-30.2,20.4l-4.5,3.8
		c-7.5,6.8-18.9,18.1-24.1,26.4l-8.3,12.1c-6,8.3-13.6,19.6-17.4,24.9s-6.8,18.1-6.8,27.9l0.8,16.6c0,9.8-2.3,21.9-6,25.7
		s-6,14.3-5.3,23.4c0.8,9.1,4.5,23.4,8.3,31.7c3.8,8.3,11.3,19.6,16.6,24.9c5.3,5.3,11.3,12.8,13.6,17.4s6,12.1,7.5,16.6
		c1.5,4.5,11.3,7.5,21.1,7.5h7.5c9.8-0.8,24.1-0.8,31.7-0.8c7.5,0,15.1-3,16.6-6c1.5-3.8,3.8-14.3,4.5-24.9l0.8-7.5
		c0.8-9.8,3-26.4,5.3-36.2l0.8-4.5c2.3-9.8,9.8-24.1,16.6-30.9l0.8-0.8c6.8-7.5,19.6-17.4,28.7-21.9l2.3-1.5
		c9.1-4.5,24.1-9.8,34-11.3l20.4-3c9.8-1.5,26.4-1.5,36.2,0l27.9,3.8c9.8,1.5,24.9,6.8,33.2,12.8l24.1,16.6
		c8.3,5.3,19.6,17.4,24.1,25.7l6.8,12.1c5.3,8.3,11.3,23.4,13.6,33.2l5.3,19.6c2.3,9.8,9.8,21.1,15.8,24.9c6,3.8,18.9,6,28.7,4.5
		l46-6.8c9.8-1.5,26.4-3,36.2-3h16.6c9.8,0,26.4,0,36.2,0h67.9c9.8,0,26.4,0,36.2,0h92.8c9.8,0,26.4,0,36.2,0h129.8
		c9.8,0,26.4,0,36.2,0H1157c9.8,0,26.4,0,36.2,0h60.4c9.8,0,18.9-8.3,18.9-18.1v-7.5c0.8-9.8,3-24.9,6-34c3-8.3,9.1-22.6,13.6-30.9
		c4.5-8.3,14.3-21.1,21.1-27.9l6-6c7.5-6.8,21.1-15.1,30.9-18.1l5.3-1.5c9.8-3,25.7-6,35.5-6.8l14.3-0.8c9.8-0.8,25.7,1.5,35.5,4.5
		l24.1,8.3c9.8,3,22.6,12.1,28.7,20.4l8.3,9.8c6,7.5,13.6,21.9,15.8,31.7l3,12.1c2.3,9.8,4.5,24.9,5.3,34c0.8,9.1,3.8,16.6,7.5,16.6
		c3,0,14.3,0,24.1-0.8l23.4-0.8c9.8,0,26.4-0.8,36.2-1.5l18.1-1.5c9.8-0.8,23.4-3,29.4-5.3s11.3-12.1,11.3-22.6L1678.4,858.8z
		 M153.4,792.4l-6,13.6l-6,11.3L127,833.9l-16.6,7.5L90,842.2L75.6,843l-2.3-18.9l1.5-15.8l4.5-12.8l11.3-15.1l69.4-2.3L153.4,792.4
		z M656.7,513.9l-4.5,37.7c-1.5,12.1-3.8,31.7-5.3,43.8l-7.5,60.4c-1.5,12.1-12.8,21.9-24.9,21.9h-41.5c-12.1,0-32.4,0-44.5,0h-53.6
		c0,0-0.8,0-1.5,0H343.5c-12.1,0-15.8-7.5-8.3-17.4l37-46c7.5-9.8,21.1-24.1,30.9-31.7l95.8-83.8c3.8-3,6.8-4.5,8.3-4.5
		c5.3-9.1,16.6-15.8,27.2-15.8h94.3c12.1,0,24.1,3,26.4,6.8C657.5,489,658.2,501.9,656.7,513.9z"/>
</g>
<g>
	<path d="M607.5,1288.7h98.3v40.8H554.3v-228.4h53.2V1288.7z"/>
	<path d="M897.4,1250.9h0.9l30-149.8h51.3l-52.4,228.4h-49.9l-38.4-140.9h-0.9l-38.1,140.9h-49.9l-52.5-228.4h51.4l30,149.8h0.9
		l40.3-149.8h36.9L897.4,1250.9z"/>
	<path d="M999,1329.5v-228.4h78.4c28.3,0,50.5,5.3,66.4,15.8c15.9,10.5,23.8,26.2,23.8,47c0,10.9-2.6,20.5-7.7,29
		c-5.1,8.5-13,14.8-23.7,19.1c13.4,3,23.3,9.1,29.6,18.3c6.4,9.2,9.6,19.7,9.6,31.6c0,22.3-7.5,39.1-22.4,50.5
		c-15,11.4-36.4,17.1-64.3,17.1H999z M1052.2,1196.3h26.4c12-0.2,21-2.5,27-7c6-4.4,8.9-11,8.9-19.5c0-9.7-3-16.8-9.1-21.3
		c-6.1-4.4-15.4-6.7-27.9-6.7h-25.3V1196.3z M1052.2,1231.5v57.3h36.5c11.3,0,19.8-2.2,25.4-6.7c5.6-4.4,8.5-11.3,8.5-20.5
		c0-9.9-2.4-17.4-7.3-22.5c-4.9-5.1-12.7-7.6-23.6-7.6H1052.2z"/>
</g>
</svg>
