<?xml version="1.0" encoding="utf-8"?>
<!-- Generator: Adobe Illustrator 18.0.0, SVG Export Plug-In . SVG Version: 6.00 Build 0)  -->
<!DOCTYPE svg PUBLIC "-//W3C//DTD SVG 1.1//EN" "http://www.w3.org/Graphics/SVG/1.1/DTD/svg11.dtd">
<svg version="1.1" id="Layer_1" xmlns="http://www.w3.org/2000/svg" xmlns:xlink="http://www.w3.org/1999/xlink" x="0px" y="0px"
	 viewBox="0 0 1734.8 1734.8" enable-background="new 0 0 1734.8 1734.8" xml:space="preserve">
<g>
	<path fill="#020304" d="M1277.5,1118.1l41.8,24.3c3,1.5,6.8,0.8,8.4-2.3l3-5.3c9.9,4.6,19.7,7.6,30.4,10.6l-0.8,6.1
		c-0.8,3,1.5,6.1,5.3,6.8l47.8,6.8c3,0.8,6.1-1.5,6.8-5.3l0.8-5.3c10.6,0,21.3-0.8,31.9-1.5l1.5,6.1c0.8,3,3.8,5.3,7.6,4.6
		l47.1-11.4c3-0.8,5.3-3.8,4.6-7.6l-1.5-5.3c0.8,0,1.5-0.8,2.3-0.8c9.1-3.8,18.2-8.4,27.3-12.9l3,4.6c2.3,3,6.1,3,8.4,1.5l39.5-28.1
		c3-2.3,3-6.1,1.5-8.4l-3-4.6c7.6-7.6,15.2-15.2,22-22.8l4.6,3c3,1.5,6.8,0.8,8.4-1.5l26.6-41c1.5-3,0.8-6.8-1.5-8.4l-5.3-3
		c4.6-9.9,9.1-19.7,12.1-29.6l5.3,0.8c3,0.8,6.8-1.5,6.8-4.6l3-16.7l6.1-31.1c0.8-3-1.5-6.8-4.6-6.8l-6.1-0.8
		c1.5-25.1-0.8-50.1-6.8-75.2l5.3-2.3c3-1.5,4.6-4.6,3.8-7.6l-8.4-22l-9.1-23.5c-1.5-3-4.6-4.6-7.6-3.8l-5.3,2.3
		c-5.3-9.1-10.6-18.2-16.7-27.3l4.6-3.8c2.3-2.3,2.3-6.1,0-8.4l-33.4-35.7c-2.3-2.3-6.1-2.3-8.4,0l-4.6,3.8l0,0
		c-8.4-6.8-16.7-12.9-25.8-18.2l2.3-5.3c1.5-3,0-6.8-3-8.4l-44-20.5c-3-1.5-6.8,0-8.4,3l-2.3,5.3c-9.9-3-20.5-6.1-31.1-7.6v-6.1
		c0-3-2.3-6.1-6.1-6.1l-48.6-3c-3,0-6.1,2.3-6.1,6.1v5.3c-10.6,0.8-21.3,2.3-31.9,4.6l-1.5-5.3c-0.8-3-4.6-4.6-7.6-3.8l-15.2,5.3
		l-7.6-14.4c-6.1-12.1-17.5-19.7-30.4-22l-37.2-72.1l-3-6.1l-1.5-3l3-1.5l-1.5-3.8c42.5-26.6,89.6-41.8,139.7-41.8
		c60,0,123.7,22,190.5,74.4c1.5,1.5,3.8,2.3,6.1,2.3c3,0,6.8-1.5,7.6-5.3c2.3-6.8,0.8-14.4-4.6-19.7c-68.3-71.4-141.2-107-219.4-107
		c-47.8,0-97.2,13.7-149.5,40.2l-3-6.1l-3-6.1l-9.9-19l26.6-13.7c12.1-35.7-20.5-97.9-56.9-110.1l-25.8,13.7l-12.1-24.3l15.2-8.4
		l-50.9-92.6l-6.8-12.1l-6.8-12.9v-5.3c0-5.3-4.6-9.1-9.1-9.1c-0.8,0-2.3,0-3,0.8c-18.2,6.8-40.2,10.6-63.8,10.6
		c-37.2,0-75.9-9.1-103.2-26.6c-1.5-0.8-2.3-0.8-3.8-0.8c-3.8,0-6.8,3-6.8,6.8l0.8,51.6c0,7.6,6.1,13.7,13.7,13.7l0,0l87.3-1.5
		l3.8,6.8l3.8,6.8l60.7,110.8l20.5-11.4l80.5,152.6l3,6.1l3,6.1l-9.1,5.3c-0.8,0.8-1.5,0.8-2.3,0.8c-1.5,0-3-0.8-3.8-1.5l-19.7-25.8
		c-0.8-0.8-0.8-1.5,0-2.3c2.3-2.3,3-6.1,1.5-8.4l-50.9-91.1c-2.3-4.6-6.8-6.8-11.4-6.8c-2.3,0-4.6,0.8-6.8,2.3l-31.1,20.5
		c-0.8,0.8-1.5,0.8-2.3,0.8c-1.5,0-2.3-0.8-3-1.5c-6.8-13.7-17.5-24.3-41-25.1c-0.8,0-0.8,0-1.5,0c-8.4,0-17.5,2.3-25.1,5.3
		l-51.6,19.7c-71.4,28.8-165.5,57.7-274.8,57.7c-86.5,0-182.9-17.5-285.4-67.6c-6.1-3-12.9-4.6-19-4.6c-1.5,0-3.8,0-5.3,0
		L92.5,424.3c-4.6,0.8-8.4,4.6-8.4,9.1c0,5.3,4.6,8.4,9.1,9.1c127.5,15.9,262.7,28.8,286.9,55.4c0.8,1.5-0.8,2.3-2.3,2.3l0,0
		l-115.4-1.5l0,0c-7.6,0-15.2,5.3-16.7,12.9l-3.8,15.2c-2.3,7.6,1.5,15.9,8.4,20.5l243.7,154.1c7.6,4.6,15.9,7.6,25.1,7.6
		c9.1,0,19,0,28.1,0c41,0,82-0.8,123-3c0,0,0,0,0.8,0c2.3,0,5.3,0.8,6.8,3l25.1,37.2c1.5,2.3,1.5,4.6,0,6.8l-3.8,5.3
		c-5.3,6.8-6.8,15.9-4.6,24.3l34.2,116.9c2.3,8.4,9.1,14.4,17.5,16.7c46.3,11.4,93.4,17.5,140.4,17.5c29.6,0,60-2.3,89.6-6.8
		c8.4-1.5,15.9-5.3,21.3-11.4c38-47.1,55.4-105.5,69.1-165.5c0-1.5,1.5-2.3,3-2.3h0.8c3.8,0.8,6.8,1.5,9.9,1.5
		c10.6,0,19-3.8,26.6-12.9c34.2-62.2,76.7-117.7,126.8-158.7l3,6.1l3,6.1l33.4,65.3c-6.1,11.4-6.1,25.1,0,37.2l6.1,12.9l-35.7,30.4
		c-2.3,2.3-3,6.1-0.8,8.4l3.8,4.6c-7.6,7.6-14.4,15.9-20.5,25.1l-5.3-2.3c-3-1.5-6.8-0.8-8.4,2.3l-22.8,43.3c-1.5,3-0.8,6.8,2.3,8.4
		l5.3,3c-3.8,9.9-6.8,19.7-9.1,30.4l-5.3-0.8c-3,0-6.1,2.3-6.8,5.3l-4.6,48.6c0,3,2.3,6.1,5.3,6.8l6.1,0.8c0,10.6,0.8,21.3,3,31.9
		l-5.3,1.5c-3,0.8-5.3,4.6-3.8,7.6l13.7,47.1c0.8,3,4.6,5.3,7.6,3.8l6.1-1.5c4.6,9.9,9.1,19.7,14.4,28.8l-4.6,3.8
		c-2.3,2.3-3,6.1-0.8,8.4l29.6,38.7c2.3,2.3,6.1,3,8.4,0.8l4.6-3.8c7.6,7.6,15.9,14.4,24.3,21.3l-3,5.3
		C1273.7,1112.8,1275.2,1116.6,1277.5,1118.1z M414.4,485c0,0-8.4-26.6-109.3-31.9c0,0,114.6-11.4,162.4,7.6
		C503.9,474.4,414.4,485,414.4,485z M853.1,879.8c-34.2,0-61.5-27.3-61.5-61.5c0-16.7,30.4-25.1,61.5-25.1
		c30.4,0,61.5,8.4,61.5,25.1C914.6,852.4,887.3,879.8,853.1,879.8z M950.3,730.2c-3,8.4-12.9,11.4-20.5,8.4l-78.2-32.6
		c-8.4-3-11.4-12.9-8.4-20.5c3-8.4,12.9-11.4,20.5-8.4l78.2,32.6C949.5,712.7,953.3,721.9,950.3,730.2z M1011.8,698.3
		c-3,8.4-12.9,11.4-20.5,8.4L913.1,674c-8.4-3-11.4-12.9-8.4-20.5c3-8.4,12.9-11.4,20.5-8.4l78.2,32.6
		C1011,680.9,1014.8,690,1011.8,698.3z M1085.4,675.6c-3,8.4-12.9,11.4-20.5,8.4l-78.2-32.6c-8.4-3-11.4-12.9-8.4-20.5
		c3-8.4,12.9-11.4,20.5-8.4l78.2,32.6C1085.4,658.1,1089.2,667.2,1085.4,675.6z M1336.7,815.2l25.8,50.1
		c-15.2,21.3-19.7,49.3-9.9,75.2c15.9,41,62.2,61.5,103.2,45.5c41-15.9,61.5-62.2,45.5-102.5c-10.6-28.1-35.7-46.3-63-50.1
		l-26.6-52.4c58.5-6.8,116.9,25.8,138.9,83.5c26.6,68.3-7.6,144.2-75.2,170.8c-68.3,26.6-144.2-7.6-170.8-75.2
		C1283.6,907.1,1298,850.9,1336.7,815.2z"/>
	<path fill="#020304" d="M556.3,928.3l-6.1-0.8c0.8-10.6,0.8-21.3,0-31.9l130.6-17.5c7.6-0.8,12.1-7.6,10.6-15.2l-12.1-63.8
		c-1.5-7.6-8.4-12.1-15.9-9.9l-119.2,30.4l-8.4-22.8c-1.5-3-4.6-4.6-7.6-3.8l-5.3,2.3c-5.3-9.1-10.6-18.2-16.7-27.3l4.6-3.8
		c2.3-2.3,2.3-6.1,0-8.4l-33.4-35.7c-2.3-2.3-6.1-2.3-8.4,0l-4.6,3.8l0,0c-8.4-6.8-16.7-12.9-25.8-18.2l2.3-5.3c1.5-3,0-6.8-3-8.4
		l-44-20.5c-3-1.5-6.8,0-8.4,3l-2.3,5.3c-9.9-3-20.5-6.1-31.1-7.6v-6.1c0-3-2.3-6.1-6.1-6.1l-48.6-3c-3,0-6.1,2.3-6.1,6.1v5.3
		c-10.6,0.8-21.3,2.3-31.9,4.6L258,668c-0.8-3-4.6-4.6-7.6-3.8l-18.2,6.1l-28.1,9.1c-3,0.8-4.6,4.6-3.8,7.6l1.5,5.3
		c-9.9,4.6-19,9.9-28.1,15.9l-3.8-4.6c-2.3-2.3-6.1-3-8.4-0.8l-37.2,31.9c-2.3,2.3-3,6.1-0.8,8.4l3.8,4.6
		c-7.6,7.6-14.4,15.9-20.5,25.1l-5.3-2.3c-3-1.5-6.8-0.8-8.4,2.3L70.5,816c-1.5,3-0.8,6.8,2.3,8.4l5.3,3c-3.8,9.9-6.8,19.7-9.1,30.4
		l-5.3-0.8c-3,0-6.1,2.3-6.8,5.3l-4.6,48.6c0,3,2.3,6.1,5.3,6.8l6.1,0.8c0,10.6,0.8,21.3,3,31.9l-5.3,0c-3,0.8-5.3,4.6-3.8,7.6
		l13.7,47.1c0.8,3,4.6,5.3,7.6,3.8l6.1-1.5c4.6,9.9,9.1,19.7,14.4,28.8l-4.6,3.8c-2.3,2.3-3,6.1-0.8,8.4l29.6,38.7
		c2.3,2.3,6.1,3,8.4,0.8l4.6-3.8c7.6,7.6,15.9,14.4,24.3,21.3l-3,5.3c-1.5,3-0.8,6.8,2.3,8.4l41.8,24.3c3,1.5,6.8,0.8,8.4-2.3l3-5.3
		c9.9,4.6,19.7,7.6,30.4,10.6l-0.8,6.1c-0.8,3,1.5,6.1,5.3,6.8l47.8,6.8c3,0.8,6.1-1.5,6.8-5.3l0.8-5.3c10.6,0,21.3-0.8,31.9-1.5
		l1.5,6.1c0.8,3,3.8,5.3,7.6,4.6l47.1-11.4c3-0.8,5.3-3.8,4.6-7.6l-1.5-5.3c0.8,0,1.5-0.8,2.3-0.8c9.1-3.8,18.2-8.4,27.3-12.9l3,4.6
		c2.3,3,6.1,3,8.4,1.5l39.5-28.1c3-2.3,3-6.1,1.5-8.4l-3-4.6c7.6-7.6,15.2-15.2,22-22.8l4.6,3c3,1.5,6.8,0.8,8.4-1.5l26.6-41
		c1.5-3,0.8-6.8-1.5-8.4l-5.3-3c4.6-9.9,9.1-19.7,12.1-29.6l5.3,0.8c3,0.8,6.8-1.5,6.8-4.6l3-16.7l6.1-31.1
		C561.6,932.1,559.4,929.1,556.3,928.3z M355.2,1034.6c-68.3,26.6-144.2-7.6-170.8-75.2c-26.6-68.3,7.6-144.2,75.2-170.8
		c63-24.3,133.6,3,164.7,61.5l-53.1,13.7c-20.5-28.1-58.5-39.5-91.9-26.6c-41,15.9-61.5,62.2-45.5,102.5
		c15.9,41,62.2,61.5,103.2,45.5c29.6-11.4,47.8-38.7,50.9-67.6l52.4-6.8C439.4,964,407.5,1014.1,355.2,1034.6z"/>
</g>
<g>
	<path d="M496.1,1499.5v-241.2h82.8c29.9,0,53.3,5.6,70.1,16.6c16.8,11.1,25.2,27.6,25.2,49.6c0,11.5-2.7,21.7-8.1,30.6
		c-5.4,9-13.7,15.7-25,20.2c14.1,3.2,24.6,9.6,31.3,19.3c6.7,9.7,10.1,20.8,10.1,33.4c0,23.5-7.9,41.3-23.7,53.3
		c-15.8,12-38.4,18-67.9,18H496.1z M552.3,1358.8h27.8c12.7-0.2,22.2-2.7,28.5-7.4c6.3-4.7,9.4-11.6,9.4-20.6
		c0-10.3-3.2-17.8-9.6-22.4c-6.4-4.7-16.2-7-29.5-7h-26.7V1358.8z M552.3,1395.9v60.5h38.6c11.9,0,20.9-2.3,26.8-7
		s8.9-11.9,8.9-21.6c0-10.5-2.6-18.4-7.7-23.8c-5.1-5.4-13.4-8-24.9-8H552.3z"/>
	<path d="M773.5,1499.5h-55.8v-241.2h55.8V1499.5z"/>
	<path d="M897.1,1402.7h-25.8v96.7h-56.1v-241.2h56.1v94.4h19l53-94.4h69.6l-74.7,109.2l81.2,132h-68.2L897.1,1402.7z"/>
	<path d="M1185.3,1396.3h-94.6v60.1h111.5v43.1h-167.6v-241.2h168v43.1h-111.8v51.8h94.6V1396.3z"/>
</g>
</svg>
