<?xml version="1.0" encoding="utf-8"?>
<!-- Generator: Adobe Illustrator 18.0.0, SVG Export Plug-In . SVG Version: 6.00 Build 0)  -->
<!DOCTYPE svg PUBLIC "-//W3C//DTD SVG 1.1//EN" "http://www.w3.org/Graphics/SVG/1.1/DTD/svg11.dtd">
<svg version="1.1" id="Layer_1" xmlns="http://www.w3.org/2000/svg" xmlns:xlink="http://www.w3.org/1999/xlink" x="0px" y="0px"
	 viewBox="0 0 1734.8 1734.8" enable-background="new 0 0 1734.8 1734.8" xml:space="preserve">
<path fill="#010202" d="M1234.9,836.8c-67.9,0-122.9,55.1-122.9,122.9s55.1,122.9,122.9,122.9s122.9-55.1,122.9-122.9
	C1357.8,891.9,1302.8,836.8,1234.9,836.8z M1234.9,1046.5c-47.5,0-86.7-39.2-86.7-86.7s39.2-86.7,86.7-86.7s86.7,39.2,86.7,86.7
	S1283.2,1046.5,1234.9,1046.5z"/>
<path fill="#010202" d="M271.1,836.8c-67.9,0-122.9,55.1-122.9,122.9s55.1,122.9,122.9,122.9S394,1027.6,394,959.8
	C393.2,891.9,338.9,836.8,271.1,836.8z M271.1,1046.5c-47.5,0-86.7-39.2-86.7-86.7s39.2-86.7,86.7-86.7s86.7,39.2,86.7,86.7
	S318.6,1046.5,271.1,1046.5z"/>
<path fill="#010202" d="M1639.2,284.8H1026c-118.4,0-182.5,69.4-275.3,162.2c-196.8,0-264,49-417.1,233.8c0,0-124.4,20.4-191.6,49.8
	s-89.7,61.1-89.7,112.4c0,97.3,12.1,116.9,12.1,116.9h64.9c0-78.4,64.1-141.8,141.8-141.8c78.4,0,141.8,64.1,141.8,141.8h680.3
	c0-78.4,64.1-141.8,141.8-141.8c78.4,0,141.8,64.1,141.8,141.8h178c92.8,0,122.9-65.6,122.9-136.5c0-83.7,0-349.9,0-349.9V323.2
	C1678.4,302.1,1661,284.8,1639.2,284.8z M720.6,663.4l-337.9,26.4C523,524.6,573.5,494.4,743.9,494.4L720.6,663.4z"/>
<g>
	<path d="M639.9,1319.7l1.6,8.5h1l1.6-7.9l46.4-171.1h56.9l-75.8,234h-58.7l-75.5-234h56.7L639.9,1319.7z"/>
	<path d="M877.9,1337.7h-73.8l-13.2,45.5h-54.6l75.5-234h58.3l75.7,234h-54.6L877.9,1337.7z M816.2,1295.9h49.7l-24.4-83.7h-1
		L816.2,1295.9z"/>
	<path d="M1157.7,1383.2h-54.2l-85.6-149.1l-1,0.3v148.8h-54.5v-234h54.5l85.6,149.1l1-0.3v-148.8h54.2V1383.2z"/>
</g>
</svg>
