<?xml version="1.0" encoding="utf-8"?>
<!-- Generator: Adobe Illustrator 18.0.0, SVG Export Plug-In . SVG Version: 6.00 Build 0)  -->
<!DOCTYPE svg PUBLIC "-//W3C//DTD SVG 1.1//EN" "http://www.w3.org/Graphics/SVG/1.1/DTD/svg11.dtd">
<svg version="1.1" id="Layer_1" xmlns="http://www.w3.org/2000/svg" xmlns:xlink="http://www.w3.org/1999/xlink" x="0px" y="0px"
	 viewBox="0 0 1734.8 1734.8" enable-background="new 0 0 1734.8 1734.8" xml:space="preserve">
<g>
	<path fill="#020304" d="M269.5,822.4c-54.5,0-98.9,44.4-98.9,98.9s44.4,98.9,98.9,98.9s98.9-44.4,98.9-98.9S324,822.4,269.5,822.4z
		 M269.5,984.4c-35,0-63.1-28-63.1-63.1c0-35,28-63.1,63.1-63.1s63.1,28,63.1,63.1C332.6,956.4,304.5,984.4,269.5,984.4z"/>
	<path fill="#020304" d="M1451,821.6c-54.5,0-98.9,44.4-98.9,98.9s44.4,98.9,98.9,98.9c54.5,0,98.9-44.4,98.9-98.9
		C1550,866,1505.6,821.6,1451,821.6z M1451,983.6c-35,0-63.1-28-63.1-63.1s28-63.1,63.1-63.1s63.1,28,63.1,63.1
		C1514.1,955.6,1486.1,983.6,1451,983.6z"/>
	<path fill="#020304" d="M1693.3,823.2c0-8.6,0-23.4,0-32.7v-14.8c0-8.6,0-23.4,0-32.7v-92.7c0-8.6-0.8-23.4-1.6-32.7l-5.5-63.1
		c-0.8-8.6-2.3-23.4-3.9-31.9l-9.3-62.3c-1.6-8.6-3.9-23.4-6.2-31.9l-4.7-21.8c-1.6-8.6-6.2-22.6-9.3-31.2v-0.8
		c-3.1-8.6-13.2-14.8-22.6-14.8H603.6c-8.6,0-21,1.6-27.3,3.1c-6.2,1.6-16.4,5.5-21.8,7.8s-16.4,9.3-23.4,14l-21,14.8
		c-7,5.5-18.7,14-25.7,19.5l-71.7,54.5c-7,5.5-18.7,14.8-24.9,20.3l-69.3,60c-7,5.5-17.9,15.6-24.9,21L250,612.1
		c-7,5.5-18.7,14-26.5,17.9l-38.9,20.3c-7.8,3.9-21,10.9-28.8,15.6l-26.5,14.8c-7.8,4.7-19.5,12.5-26.5,17.9l-3.9,3.9
		c-7,5.5-16.4,16.4-21.8,23.4l-7.8,10.9c-5.5,7-12.5,17.1-15.6,22.6c-3.9,4.7-6.2,16.4-6.2,24.9l0.8,14.8c0,8.6-2.3,19.5-5.5,22.6
		c-3.1,3.9-5.5,13.2-4.7,21s3.9,21,7,28c3.9,7.8,10.1,17.1,14.8,21.8c4.7,4.7,10.1,11.7,12.5,15.6c2.3,3.9,5.5,10.9,6.2,14.8
		c1.6,3.9,9.3,7,18.7,6.2h6.2c8.6,0,21.8-0.8,28-0.8c7,0,13.2-2.3,14.8-5.5c1.6-3.1,3.1-13.2,3.9-21.8l0.8-6.2
		c0.8-8.6,3.1-23.4,4.7-31.9l0.8-3.9c2.3-8.6,8.6-21,14.8-27.3l0.8-0.8c6.2-6.2,17.1-15.6,25.7-19.5l2.3-0.8
		c7.8-3.9,21.8-8.6,30.4-10.1l17.9-3.1c8.6-1.6,23.4-1.6,31.9,0l24.9,3.9c8.6,1.6,21.8,6.2,29.6,10.9l21.8,14.8
		c7.8,4.7,17.1,15.6,21.8,23.4l6.2,10.9c4.7,7.8,10.1,21,12.5,29.6l4.7,17.1c2.3,8.6,8.6,18.7,14,21.8c5.5,3.9,17.1,5.5,25.7,3.9
		l40.5-6.2c8.6-1.6,23.4-2.3,31.9-2.3h14.8c8.6,0,23.4,0,32.7,0H620c8.6,0,23.4,0,32.7,0h80.2c8.6,0,23.4,0,32.7,0h115.3
		c8.6,0,23.4,0,32.7,0h317.8c8.6,0,23.4,0,32.7,0h53.7c8.6,0,16.4-7,17.1-16.4v-6.2c0-8.6,3.1-22.6,5.5-29.6
		c2.3-7.8,7.8-20.3,12.5-27.3c3.9-7.8,12.5-18.7,18.7-24.9l5.5-5.5c6.2-6.2,18.7-13.2,27.3-16.4l4.7-1.6c8.6-2.3,22.6-5.5,31.9-6.2
		l13.2-0.8c8.6-0.8,23.4,1.6,31.2,3.9l21,7c8.6,3.1,20.3,10.9,25.7,17.9l7,8.6c5.5,7,11.7,19.5,14,28l2.3,10.9
		c2.3,8.6,3.9,22.6,4.7,30.4c0.8,7.8,3.9,14.8,6.2,14.8c3.1,0,12.5,0,21-0.8l21-0.8c8.6,0,23.4-0.8,32.7-1.6l16.4-0.8
		c8.6-0.8,20.3-2.3,25.7-4.7c5.5-2.3,9.3-10.9,9.3-19.5L1693.3,823.2z M127,764l-5.5,11.7l-5.5,10.1l-13.2,14.8L88,806.8l-18.7,0.8
		l-13.2,0.8L55.3,792l0.8-14l3.9-11.7l10.1-13.2l61.5-2.3L127,764z M573.3,517.9l-3.9,33.5c-1.6,10.9-3.1,28-4.7,38.9l-7,53
		c-1.6,10.9-11.7,19.5-21.8,19.5h-37.4c-10.9,0-28.8,0-39.7,0h-47.5h-0.8H295.2c-10.9,0-14-7-7-15.6l32.7-40.5
		c7-8.6,18.7-21,27.3-28l85.7-74.8c3.1-3.1,5.5-3.9,7.8-3.9c4.7-7.8,14.8-14,24.1-14h84.1c10.9,0,21.8,2.3,23.4,5.5
		C574,495.3,574.8,507,573.3,517.9z"/>
</g>
<g>
	<path d="M553.8,1161.6l36.5-74.7h59.3l-63.4,109.8l68.3,111.7h-62.4l-37.7-76.2l-37.7,76.2h-59.3l65.1-111.7L459,1086.9h58.9
		L553.8,1161.6z"/>
	<path d="M723,1268.9h95.4v39.6h-147v-221.5H723V1268.9z"/>
	<path d="M1004.2,1232.2h0.9l29.1-145.3h49.8l-50.8,221.5h-48.4l-37.3-136.6h-0.9l-37,136.6h-48.4l-51-221.5h49.9l29.1,145.3h0.9
		l39.1-145.3h35.8L1004.2,1232.2z"/>
	<path d="M1102.8,1308.4v-221.5h76.1c27.5,0,48.9,5.1,64.4,15.3c15.4,10.2,23.1,25.4,23.1,45.6c0,10.6-2.5,19.9-7.5,28.1
		c-5,8.2-12.6,14.4-23,18.6c13,2.9,22.6,8.9,28.8,17.7c6.2,8.9,9.3,19.1,9.3,30.7c0,21.6-7.2,37.9-21.8,49
		c-14.5,11.1-35.3,16.6-62.4,16.6H1102.8z M1154.3,1179.3h25.6c11.7-0.2,20.4-2.5,26.2-6.8c5.8-4.3,8.7-10.6,8.7-18.9
		c0-9.4-2.9-16.3-8.8-20.6c-5.9-4.3-14.9-6.5-27.1-6.5h-24.5V1179.3z M1154.3,1213.4v55.5h35.4c11,0,19.2-2.2,24.6-6.5
		c5.5-4.3,8.2-10.9,8.2-19.9c0-9.6-2.4-16.9-7.1-21.8c-4.7-4.9-12.3-7.4-22.9-7.4H1154.3z"/>
</g>
</svg>
