<?xml version="1.0" encoding="utf-8"?>
<!-- Generator: Adobe Illustrator 18.0.0, SVG Export Plug-In . SVG Version: 6.00 Build 0)  -->
<!DOCTYPE svg PUBLIC "-//W3C//DTD SVG 1.1//EN" "http://www.w3.org/Graphics/SVG/1.1/DTD/svg11.dtd">
<svg version="1.1" id="Layer_1" xmlns="http://www.w3.org/2000/svg" xmlns:xlink="http://www.w3.org/1999/xlink" x="0px" y="0px"
	 viewBox="0 0 1734.8 1734.8" enable-background="new 0 0 1734.8 1734.8" xml:space="preserve">
<g>
	<path fill="#020304" d="M314.1,859.6c-61.2,0-111.8,49.8-111.8,111.8s49.8,111.8,111.8,111.8c61.2,0,111.8-49.8,111.8-111.8
		C425.9,909.4,376.1,859.6,314.1,859.6z M314.1,1042.3c-39.3,0-71-31.7-71-71s31.7-71,71-71s71,31.7,71,71
		C385.9,1010.6,353.4,1042.3,314.1,1042.3z"/>
	<path fill="#020304" d="M1406,858.9c-61.9,0-111.8,49.8-111.8,111.8s49.8,111.8,111.8,111.8c61.2,0,111.8-49.8,111.8-111.8
		C1517,908.7,1467.2,858.9,1406,858.9z M1406,1041.6c-39.3,0-71-31.7-71-71c0-39.3,31.7-71,71-71s71,31.7,71,71
		C1477,1009.9,1445.3,1041.6,1406,1041.6z"/>
	<path fill="#020304" d="M1679.4,860.4c0-9.8,0-26.4,0-36.2v-16.6c0-9.8,0-26.4,0-36.2V667.1c0-9.8-0.8-26.4-1.5-36.2l-6-71.7
		c-0.8-9.8-3-26.4-4.5-36.2l-10.6-69.5c-1.5-9.8-4.5-26.4-6.8-36.2l-5.3-24.9c-2.3-9.8-6.8-25.7-10.6-34.7l-0.8-0.8
		c-3.8-9.1-15.1-16.6-25.7-16.6H690.9c-9.8,0-24.2,1.5-31,3.8c-6.8,2.3-18.1,6-24.9,9.1c-6.8,3-18.9,10.6-26.4,15.9l-23.4,16.6
		c-8.3,6-21.1,15.9-29.4,21.9L475,469.2c-8.3,6-20.4,16.6-28.7,23.4l-78.5,67.2c-7.6,6.8-20.4,17.4-27.9,24.2l-49.1,42.3
		c-7.6,6.8-21.1,15.9-30.2,20.4L216,670.1c-9.1,4.5-23.4,12.8-32.5,17.4l-30.2,16.6c-9.1,4.5-21.9,14.3-30.2,20.4l-4.5,3.8
		c-7.6,6.8-18.9,18.1-24.2,26.4l-8.3,12.1c-6,8.3-13.6,19.6-17.4,24.9c-3.8,5.3-6.8,18.1-6.8,27.9l0.8,16.6c0,9.8-2.3,21.9-6,25.7
		s-6,14.3-5.3,23.4c0.8,9.1,4.5,23.4,8.3,31.7c3.8,8.3,11.3,19.6,16.6,24.9c5.3,5.3,11.3,12.8,13.6,17.4c2.3,4.5,6,12.1,7.6,16.6
		c1.5,4.5,11.3,7.6,21.1,7.6h7.6c9.8-0.8,24.2-0.8,31.7-0.8s15.1-3,16.6-6c1.5-3.8,3.8-14.3,4.5-24.9l0.8-7.6
		c0.8-9.8,3-26.4,5.3-36.2l0.8-4.5c2.3-9.8,9.8-24.2,16.6-31l0.8-0.8c6.8-7.6,19.6-17.4,28.7-21.9l2.3-1.5c9.1-4.5,24.2-9.8,34-11.3
		l20.4-3c9.8-1.5,26.4-1.5,36.2,0l27.9,3.8c9.8,1.5,24.9,6.8,33.2,12.8l24.2,16.6c8.3,5.3,19.6,17.4,24.2,25.7l6.8,12.1
		c5.3,8.3,11.3,23.4,13.6,33.2l5.3,19.6c2.3,9.8,9.8,21.1,15.9,24.9s18.9,6,28.7,4.5l46.1-6.8c9.8-1.5,26.4-3,36.2-3h16.6
		c9.8,0,26.4,0,36.2,0h68c9.8,0,26.4,0,36.2,0h92.9c9.8,0,26.4,0,36.2,0h129.9c9.8,0,26.4,0,36.2,0h118.6c9.8,0,26.4,0,36.2,0h60.4
		c9.8,0,18.9-8.3,18.9-18.1v-7.6c0.8-9.8,3-24.9,6-34c3-8.3,9.1-22.7,13.6-31s14.3-21.1,21.1-27.9l6-6c7.6-6.8,21.1-15.1,31-18.1
		l5.3-1.5c9.8-3,25.7-6,35.5-6.8l14.3-0.8c9.8-0.8,25.7,1.5,35.5,4.5l24.2,8.3c9.8,3,22.7,12.1,28.7,20.4l8.3,9.8
		c6,7.6,13.6,21.9,15.9,31.7l3,12.1c2.3,9.8,4.5,24.9,5.3,34c0.8,9.1,3.8,16.6,7.6,16.6c3,0,14.3,0,24.2-0.8l23.4-0.8
		c9.8,0,26.4-0.8,36.2-1.5l18.1-1.5c9.8-0.8,23.4-3,29.4-5.3s11.3-12.1,11.3-22.7L1679.4,860.4z M153.3,793.9l-6,13.6l-6,11.3
		l-14.3,16.6l-16.6,7.6l-20.4,0.8l-14.3,0.8l-2.3-18.9l1.5-15.9l4.5-12.8l11.3-15.1l69.5-2.3L153.3,793.9z M657,515.3l-4.5,37.8
		c-1.5,12.1-3.8,31.7-5.3,43.8l-7.6,60.4c-1.5,12.1-12.8,21.9-24.9,21.9h-41.5c-12.1,0-32.5,0-44.6,0H475c0,0-0.8,0-1.5,0H343.6
		c-12.1,0-15.9-7.6-8.3-17.4l37-46.1c7.6-9.8,21.1-24.2,31-31.7l95.9-83.8c3.8-3,6.8-4.5,8.3-4.5c5.3-9.1,16.6-15.9,27.2-15.9H629
		c12.1,0,24.2,3,26.4,6.8C657.7,490.4,658.5,503.2,657,515.3z"/>
</g>
<g>
	<path d="M564.2,1098.4l51.2,159.9h0.9l51.8-159.9h70V1327h-53.2v-56.7l5-104.4l-0.9-0.2L633.9,1327h-35.8l-54.5-159.8l-0.9,0.2
		l5,103v56.7h-53.2v-228.5H564.2z"/>
	<path d="M957.7,1248.3h0.9l30-149.9h51.3L987.6,1327h-49.9l-38.5-141h-0.9l-38.1,141h-49.9l-52.6-228.5h51.5l30,149.9h0.9
		l40.3-149.9h36.9L957.7,1248.3z"/>
	<path d="M1059.5,1327v-228.5h78.5c28.4,0,50.5,5.3,66.4,15.8c15.9,10.5,23.9,26.2,23.9,47c0,10.9-2.6,20.6-7.7,29
		c-5.1,8.5-13,14.9-23.7,19.1c13.4,3,23.3,9.1,29.7,18.3c6.4,9.2,9.6,19.7,9.6,31.6c0,22.3-7.5,39.1-22.4,50.5
		c-15,11.4-36.4,17.1-64.4,17.1H1059.5z M1112.7,1193.7h26.4c12-0.2,21-2.5,27-7c6-4.4,8.9-11,8.9-19.5c0-9.7-3-16.8-9.1-21.3
		c-6.1-4.4-15.4-6.7-27.9-6.7h-25.3V1193.7z M1112.7,1228.9v57.3h36.6c11.3,0,19.8-2.2,25.4-6.7c5.7-4.4,8.5-11.3,8.5-20.5
		c0-9.9-2.4-17.4-7.3-22.5c-4.9-5.1-12.7-7.6-23.6-7.6H1112.7z"/>
</g>
</svg>
