<?xml version="1.0" encoding="utf-8"?>
<!-- Generator: Adobe Illustrator 19.0.0, SVG Export Plug-In . SVG Version: 6.00 Build 0)  -->
<!DOCTYPE svg PUBLIC "-//W3C//DTD SVG 1.1//EN" "http://www.w3.org/Graphics/SVG/1.1/DTD/svg11.dtd">
<svg version="1.1" id="Layer_1" xmlns="http://www.w3.org/2000/svg" xmlns:xlink="http://www.w3.org/1999/xlink" x="0px" y="0px"
	 viewBox="569 -570.5 1734.8 1734.8" enable-background="new 569 -570.5 1734.8 1734.8" xml:space="preserve">
<g>
	<path fill="#020304" d="M1185.9,673.3h-68.2v43.3h80.3v31h-120.8V573.9h121v31h-80.6v37.4h68.2L1185.9,673.3L1185.9,673.3z"/>
	<path fill="#020304" d="M1269.3,573.9l38.9,121.6h0.7l39.4-121.6h53.2v173.8H1361v-43.1l3.8-79.4l-0.7-0.1l-41.9,122.6H1295
		l-41.4-121.5l-0.7,0.1l3.8,78.3v43.1h-40.5V573.9H1269.3z"/>
	<path fill="#020304" d="M1469.3,688.1v59.6h-40.5V573.9h70.5c20.6,0,37,5.3,49.1,15.8s18.1,24.3,18.1,41.4c0,17.1-6,30.9-18.1,41.4
		s-28.5,15.7-49.1,15.7h-30V688.1z M1469.3,657.1h30.1c8.8,0,15.4-2.4,20-7.2s6.9-11,6.9-18.6c0-7.7-2.3-14-6.9-19
		c-4.6-4.9-11.2-7.4-20-7.4h-30.1V657.1z"/>
	<path fill="#020304" d="M1710.5,604.9h-45.8v142.8h-40.5V604.9h-45.5v-31h131.8V604.9z"/>
	<path fill="#020304" d="M1792.9,649.8h0.7l34.6-75.9h43.8l-59.1,112.7v61.1h-40.2v-63.1l-57.9-110.7h43.6L1792.9,649.8z"/>
</g>
<g>
	<g>
		<path fill="#020304" d="M1890.9,449c0,61.8,50.5,111.6,111.6,111.6c61.8,0,111.6-49.8,111.6-111.6s-50.5-111.6-111.6-111.6
			C1940.7,337.4,1890.9,387.2,1890.9,449z M1931.6,449c0-39.2,31.7-70.9,70.9-70.9c39.2,0,70.9,31.7,70.9,70.9s-31.7,70.9-70.9,70.9
			C1963.3,519.9,1930.9,488.2,1931.6,449z"/>
		<path fill="#020304" d="M800.6,448.3c0,61.8,50.5,111.6,111.6,111.6c61.8,0,111.6-49.8,111.6-111.6S974,336.7,912.2,336.7
			C851.2,336.7,801.4,386.5,800.6,448.3z M841.3,448.3c0-39.2,31.7-70.9,70.9-70.9c39.2,0,70.9,31.7,70.9,70.9s-31.7,70.9-70.9,70.9
			S841.3,487.5,841.3,448.3z"/>
	</g>
	<g>
		<path fill="#020304" d="M1812.2,465c9.9,1.5,22.7-0.7,28.7-4.5s13.5-15.1,15.8-24.9l5.3-19.6c2.3-9.8,8.3-24.9,13.6-33.2l6.8-12.1
			c4.5-8.3,15.8-20.3,24.1-25.6l24.1-16.6c8.3-6,23.4-11.3,33.2-12.8l27.9-3.8c9.8-1.5,26.4-1.5,36.2,0l20.4,3
			c9.8,1.5,24.9,6.8,33.9,11.3l2.3,1.5c9.1,4.6,21.9,14.4,28.7,21.9l0.8,0.8c6.8,6.8,14.3,21.1,16.6,30.9l0.8,4.5
			c2.3,9.8,4.5,26.4,5.3,36.2l0.8,7.5c0.7,10.6,3,21.1,4.5,24.9c1.5,3,9.1,6,16.6,6c7.6,0,21.9,0,31.7,0.8h7.5
			c9.8,0,19.6-3,21.1-7.5s5.2-12.1,7.5-16.6c2.3-4.5,8.3-12,13.6-17.3s12.8-16.6,16.6-24.9c3.8-8.3,7.5-22.7,8.3-31.7
			c0.7-9.1-1.6-19.7-5.3-23.4c-3.7-3.7-6-15.8-6-25.6l0.8-16.6c0-9.8-3.1-22.6-6.8-27.9c-3.7-5.3-11.3-16.6-17.3-24.9l-8.3-12.1
			c-5.3-8.3-16.6-19.6-24.1-26.4l-4.5-3.8c-8.3-6.1-21.2-15.9-30.2-20.4l-30.2-16.6c-9-4.5-23.4-12.8-32.4-17.3l-44.5-23.4
			c-9.1-4.6-22.7-13.6-30.2-20.4l-49-42.2c-7.5-6.8-20.4-17.3-27.9-24.1l-78.3-67.2c-8.3-6.8-20.4-17.4-28.7-23.4l-80.7-61.8
			c-8.3-6.1-21.1-15.9-29.4-21.9l-23.4-16.6c-7.6-5.2-19.6-12.8-26.4-15.8c-4.2-1.8-10.2-4-15.8-5.9l4.3,134.9
			c4.9-1.4,11.2-2.2,17.6-2.2h94.2c10.5,0,21.8,6.8,27.1,15.8c1.5,0,4.5,1.5,8.3,4.5l95.8,83.7c9.8,7.6,23.4,21.9,30.9,31.7l36.9,46
			c7.5,9.8,3.8,17.3-8.3,17.3h-129.7c-0.7,0-1.5,0-1.5,0h-53.5c-12.1,0-32.4,0-44.5,0h-41.5c-12.1,0-23.4-9.8-24.9-21.9l-1.9-15.2
			L1625,484.3 M2156.3,257.5l69.4,2.3l11.3,15.1l4.5,12.8l1.5,15.8l-2.3,18.9l-14.3-0.8l-20.4-0.8l-16.6-7.5l-14.3-16.6l-6-11.3
			l-6-13.6L2156.3,257.5z"/>
	</g>
	<path fill="#020304" d="M1005.3,434.2v-5.5c-0.6-5.5-1.5-12-2.6-16.9l68.4-14.7c1.3,5.8,2.4,12.6,3.2,19.1h16.7v70h-32.5
		C1029.7,486.2,1005.3,462.4,1005.3,434.2z M1111,416.2h90v70h-90V416.2z M1221,416.2h90v70h-90V416.2z M1331.1,416.2h90v70h-90
		V416.2z M1441.1,416.2h90v70h-90V416.2z M1551.1,416.1h15.1l-14.6,0.1l84.5-4.9l2.2,72.3l-87.2,2.6V416.1z M762.7,472l-21.3-0.7
		c-7.5,0-16.9-0.4-21.9-0.6l3.3-69.9c7.7,0.4,14.7,0.6,19.2,0.6l23.8,0.8l1.6,0.1c3.7,0.3,10.3,0.6,20.6,0.6
		c-11.2,0,47.5,2.1,43,7.4l-0.5,11.2c-0.2,1.4-0.3,2.8-0.4,3.9c-3.2,35-24.7,47.4-42.1,47.4C778.2,472.8,769.8,472.6,762.7,472z
		 M686.5,468.5c-2.5-0.2-24.4-2.1-37.9-7.1c-19.7-7.3-33.5-29.2-33.7-53.4l-0.7-23.7l70-2.2l0.5,15.7c2.5,0.3,5,0.6,7.5,0.8
		l11.7,0.9l-5.6,69.8L686.5,468.5z M764.4,390.8c0.6-3.2,1.3-6.2,1.9-8.8l2.9-11.5c3.7-15.4,14-33.6,22.3-43.7l8-9.2
		c7.2-9.1,18-17.9,29.8-24.2l33,61.8c-3.8,2-7,4.8-7.8,5.8l-0.7,1l-8.4,9.7c-3,3.9-7.2,12.1-8,15.2l-3,11.9
		c-0.4,1.5-0.8,3.3-1.2,5.4L764.4,390.8z M991,383.6l-0.2-0.3c-2.6-4.6-9.9-14-14.3-18.2l-5-4.9c-2.9-2.4-8.5-6-13.6-8.3l28.5-63.9
		c11.3,5.1,23.5,12.8,31.8,20.1l7.1,6.8c9.2,8.9,20.6,23.6,26.5,34.1c4.4,7.7,8.8,17.6,11,22.8l-64.4,27.4
		C995.7,392.8,992.8,386.8,991,383.6z M1563,303.4l70-2l2.6,90l-70,2L1563,303.4z M613,342.2v-69.1h70v67.5l0.7,21.4l-70,2.2
		L613,342.2z M853.5,284.1l13.1-4.4l1.1-0.4c11.9-3.5,27.7-5.8,40.1-5.8c2.2,0,4.4,0.1,6.4,0.2l13.5,0.7l0.9,0.1
		c9.2,0.7,21.6,2.8,32.6,5.4L945.1,348c-7.1-1.7-16.1-3.2-21.6-3.7l-13.4-0.7l-0.9-0.1c-0.2,0-0.6,0-1.4,0c-5.4,0-14.2,1.3-19.6,2.8
		l-12.5,4.2L853.5,284.1z M1559.7,193.4l70-2l2.6,90l-70,2L1559.7,193.4z M613,163.1h70v90h-70V163.1z M1556.5,83.5l70-2l2.6,90
		l-70,2L1556.5,83.5z M613.5,141.5c0.3-6.5,0.7-13.2,1.1-18.5l5.8-67.7c0.6-7.9,2-18.5,2.8-24.1l69.3,9.6c-1.1,8.3-2,15.8-2.4,20.5
		l-5.8,67.1c-0.3,4.5-0.7,10.6-0.9,16.2L613.5,141.5z M1553.3-26.5l70-2l2.6,90l-70,2L1553.3-26.5z M626.3,10.8l9-57.2
		c1.4-8.9,4-23.4,6.4-33.8L710-64.7c-1.9,8.5-4.3,21.5-5.5,29.2l-9,57.2L626.3,10.8z M1550.9-112.4h-26v-70h78.5
		c22.5,0,36,17.8,36,35c0,12-6.5,24.7-18.7,31l2,68l-70,2L1550.9-112.4z M645.9-99.6l1.4-6.4l0.2-0.7c1.9-7.9,6.9-26.1,12.1-38.2
		l2.8-6.4l2.1-2c11.1-17.5,31.7-29.1,52.9-29.1h17.4v70h-12.4l-0.4,0.9l-0.2,0.2c-2.2,6.4-4.6,14.7-6.1,20.8l-1.3,6L645.9-99.6z
		 M754.8-182.4h90v70h-90V-182.4z M864.8-182.4h90v70h-90V-182.4z M974.8-182.4h90v70h-90V-182.4z M1084.8-182.4h90v70h-90V-182.4z
		 M1194.8-182.4h90v70h-90V-182.4z M1304.8-182.4h90v70h-90V-182.4z M1414.8-182.4h90v70h-90V-182.4z"/>
	<polygon fill="#020304" points="1605,-181.7 1667,-173.7 1685,464.3 1629,452.3 	"/>
</g>
</svg>
