<?xml version="1.0" encoding="utf-8"?>
<!-- Generator: Adobe Illustrator 18.0.0, SVG Export Plug-In . SVG Version: 6.00 Build 0)  -->
<!DOCTYPE svg PUBLIC "-//W3C//DTD SVG 1.1//EN" "http://www.w3.org/Graphics/SVG/1.1/DTD/svg11.dtd">
<svg version="1.1" id="Layer_1" xmlns="http://www.w3.org/2000/svg" xmlns:xlink="http://www.w3.org/1999/xlink" x="0px" y="0px"
	 viewBox="0 0 1734.8 1734.8" enable-background="new 0 0 1734.8 1734.8" xml:space="preserve">
<g>
	<g>
		<path fill="#020304" d="M1635.5,880.9h-66.1V303.8c0-12-9.8-21.8-21.8-21.8H642.8c-12,0-21.8,9.8-21.8,21.8v577.1h-27.8V539.8
			c0-12-9.8-21.8-21.8-21.8H322.7c-13.5,0-25.5,7.5-31.6,18.8l-138.3,254c-6.8,12-10.5,26.3-10.5,40.6v49.6H98
			c-12.8,0-25.5,7.5-29.3,19.5c-6,19.5-6,39.1,0,58.6c3.8,12.8,16.5,20.3,29.3,20.3h66.1l0,0h24h23.3c2.3-39.8,21-74.4,48.8-99.2
			c24.8-21,56.4-33.8,90.9-33.8s66.9,12.8,90.9,33.8c28.6,24,46.6,59.4,48.8,99.2l0,0h20.3v16.5c0,13.5,5.3,27.1,15,36.8l16.5,17.3
			c5.3,5.3,15,1.5,15-6v-64.6h656.8c2.3-39.8,21-74.4,48.8-99.2c24.8-21,56.4-33.8,90.9-33.8s66.9,12.8,90.9,33.8
			c28.6,24,46.6,59.4,48.8,99.2h25.5v20.3c0,13.5,6,27.1,15.8,36.1l15.8,15c6,5.3,15.8,1.5,15.8-6.8v-64.6h66.1
			c12.8,0,24.8-7.5,28.6-20.3c5.3-19.5,5.3-38.3,0-58.6C1660.3,888.5,1648.3,880.9,1635.5,880.9z M506.1,708.1
			c0,12-9.8,21.8-21.8,21.8H382.1c-3,0-6,2.3-7.5,4.5l-4.5,9c-6,12-18,19.5-30.8,19.5h-43.6c-9.8,0-16.5-10.5-12-19.5l34.6-71.4
			l24.8-45.8c6-11.3,18.8-18.8,31.6-18.8h109c12,0,21.8,9.8,21.8,21.8v78.9H506.1z"/>
		<path fill="#020304" d="M464,980.1c-3-46.6-34.6-84.9-77.4-99.2c-11.3-3.8-22.5-6-35.3-6c-12,0-24,2.3-35.3,6
			c-42.8,14.3-73.6,52.6-77.4,99.2c0,3-0.8,5.3-0.8,8.3c0,62.4,50.3,112.7,112.7,112.7s112.7-50.3,112.7-112.7
			C464.7,985.4,464.7,982.4,464,980.1L464,980.1z M352,1052.3c-35.3,0-64.6-28.6-64.6-64.6c0-3,0-5.3,0.8-8.3
			c3.8-31.6,30.8-56.4,63.9-56.4s60.1,24.8,63.9,56.4l0,0c0,3,0.8,5.3,0.8,8.3C416.6,1023.7,387.3,1052.3,352,1052.3z"/>
		<path fill="#020304" d="M1391.3,880.9c-11.3-3.8-22.5-6-35.3-6c-12.8,0-24,2.3-35.3,6c-42.8,14.3-73.6,52.6-77.4,99.2
			c0,3-0.8,5.3-0.8,8.3c0,62.4,50.3,112.7,112.7,112.7s112.7-50.3,112.7-112.7c0-3,0-5.3-0.8-8.3
			C1465.7,933.5,1434.1,895.2,1391.3,880.9z M1356.7,1052.3c-35.3,0-64.6-28.6-64.6-64.6c0-3,0-5.3,0.8-8.3
			c3.8-31.6,30.8-56.4,63.9-56.4c33.1,0,60.1,24.8,63.9,56.4c0,3,0.8,5.3,0.8,8.3C1420.6,1023.7,1392,1052.3,1356.7,1052.3z"/>
	</g>
	<rect x="382.8" y="282" fill="#020304" width="372" height="199.9"/>
</g>
<g>
	<path d="M453.2,1344.2H546v38.5H403v-215.5h50.2V1344.2z"/>
	<path d="M740.4,1167.2v141.2c0,24.6-8.2,43.6-24.5,57.1c-16.3,13.5-37.7,20.3-64.2,20.3c-26.7,0-48.3-6.8-64.7-20.3
		c-16.4-13.5-24.6-32.6-24.6-57.1v-141.2h50.2v141.2c0,13.2,3.4,23,10.2,29.4c6.8,6.4,16.4,9.5,28.9,9.5c12.3,0,21.8-3.2,28.5-9.5
		c6.7-6.3,10-16.1,10-29.5v-141.2H740.4z"/>
	<path d="M923.7,1205.7h-56.8v177h-50.2v-177h-56.4v-38.5h163.4V1205.7z"/>
	<path d="M1118,1294.3c0,26.5-8.4,48.4-25.2,65.6c-16.8,17.2-38.8,25.8-65.9,25.8c-27.3,0-49.5-8.6-66.5-25.8
		c-17-17.2-25.5-39.1-25.5-65.6v-38.8c0-26.4,8.5-48.3,25.4-65.6c16.9-17.3,39-25.9,66.2-25.9c27,0,49,8.6,66,25.9
		c17,17.3,25.5,39.1,25.5,65.6V1294.3z M1068.1,1255.2c0-15.4-3.6-28-10.9-37.9c-7.3-9.9-17.5-14.8-30.7-14.8
		c-13.5,0-23.9,4.9-31,14.7c-7.2,9.8-10.7,22.5-10.7,38v39.1c0,15.6,3.6,28.3,10.9,38.2c7.3,9.9,17.6,14.8,31.2,14.8
		c13.1,0,23.3-4.9,30.5-14.8c7.2-9.9,10.8-22.6,10.8-38.2V1255.2z"/>
	<path d="M1326.8,1382.7h-49.9l-78.9-137.3l-0.9,0.3v137H1147v-215.5h50.2l78.9,137.3l0.9-0.3v-137h49.9V1382.7z"/>
</g>
</svg>
